<?xml version="1.0" ?><svg data-name="015_HEALTH" height="24" id="_015_HEALTH" viewBox="0 0 24 24" width="24" xmlns="http://www.w3.org/2000/svg"><title/><path d="M10.22314,20.16162A6,6,0,0,1,5.98145,9.918l4.62939-4.62891a3.07156,3.07156,0,0,1,4.24219,0L19.0957,9.53174a2.99891,2.99891,0,0,1,0,4.24219l-3.18164,3.18213A.99989.99989,0,0,1,14.5,15.542l3.18164-3.18213a.99964.99964,0,0,0,.00049-1.41357L13.439,6.70313a1.02388,1.02388,0,0,0-1.41357-.00049L7.395,11.33252a3.99972,3.99972,0,0,0,0,5.65723,4.0505,4.0505,0,0,0,4.36865.86475,1.00011,1.00011,0,0,1,.76855,1.84668A5.97276,5.97276,0,0,1,10.22314,20.16162Z" style="fill:#333"/><path d="M3,22.38477a1,1,0,0,1-.707-1.707l3.688-3.688A.99989.99989,0,0,1,7.395,18.40381l-3.688,3.688A.99676.99676,0,0,1,3,22.38477Z" style="fill:#333"/><path d="M16.26758,9.11719a1,1,0,0,1-.707-1.707l2.99609-2.99609A.99989.99989,0,0,1,19.9707,5.82813L16.97461,8.82422A.99676.99676,0,0,1,16.26758,9.11719Z" style="fill:#333"/><path d="M21.38477,8.24268a.99676.99676,0,0,1-.707-.293L16.43506,3.707A.99989.99989,0,0,1,17.84912,2.293L22.0918,6.53564a1,1,0,0,1-.707,1.707Z" style="fill:#333"/><path d="M15,17a.99676.99676,0,0,1-.707-.293l-4.25-4.25A.99989.99989,0,0,1,11.457,11.043l4.25,4.25A1,1,0,0,1,15,17Z" style="fill:#333"/></svg>